<svg xmlns="http://www.w3.org/2000/svg" preserveAspectRatio="xMinYMin meet" viewBox="0 0 350 350"><style>.base { fill: white; font-family: serif; font-size: 14px; }</style><rect width="100%" height="100%" fill="black" /> <g id="Page-1" stroke="none" stroke-width="1" fill="none" fill-rule="evenodd"><g id="Group-2"><rect id="Rectangle" fill="#000000" x="0" y="0" width="350" height="350"></rect><g id="Group" transform="translate(270.000000, 224.000000)" fill="#27329C" fill-opacity="0.6"><path d="M42,40.5678392 L63,28.2211055 L63,52.9145729 L42,40.5678392 Z M63,93.4824121 L35,109.944724 L7,93.4824121 L7,64.6733668 L35,81.1356784 L63,64.6733668 L63,93.4824121 Z M7,28.2211055 L28,40.5678392 L7,52.9145729 L7,28.2211055 Z M38.5,46.4472362 L59.5,58.7939698 L38.5,71.1407035 L38.5,46.4472362 Z M31.5,71.1407035 L10.5,58.7939698 L31.5,46.4472362 L31.5,71.1407035 Z M59.5,22.3417085 L35,36.4522613 L10.5,22.3417085 L35,7.64321608 L59.5,22.3417085 Z M0,19.9899497 L0,97.0100503 L35,117 L70,97.0100503 L70,19.9899497 L35,0 L0,19.9899497 Z" id="Shape"></path></g></g></g><text x="10" y="20" class="base">Scimitar</text><text x="10" y="40" class="base">Plate Mail</text><text x="10" y="60" class="base">Silk Hood</text><text x="10" y="80" class="base">Heavy Belt</text><text x="10" y="100" class="base">Ornate Greaves</text><text x="10" y="120" class="base">Leather Gloves of Perfection</text><text x="10" y="140" class="base">Amulet</text><text x="10" y="160" class="base">Gold Ring</text></svg>